<?xml version="1.0" encoding="UTF-8" standalone="no"?>
<!DOCTYPE svg PUBLIC "-//W3C//DTD SVG 1.1//EN"
 "http://www.w3.org/Graphics/SVG/1.1/DTD/svg11.dtd">
<!-- Generated by graphviz version 2.43.0 (0)
 -->
<!-- Title: ECE490 Pages: 1 -->
<svg width="747pt" height="1504pt"
 viewBox="0.00 0.00 746.62 1504.00" xmlns="http://www.w3.org/2000/svg" xmlns:xlink="http://www.w3.org/1999/xlink">
<g id="graph0" class="graph" transform="scale(1 1) rotate(0) translate(4 1500)">
<title>ECE490</title>
<polygon fill="white" stroke="transparent" points="-4,4 -4,-1500 742.62,-1500 742.62,4 -4,4"/>
<g id="clust5" class="cluster">
<title>cluster_LinearAlgebra</title>
<polygon fill="none" stroke="orange" points="33.77,-469 33.77,-868 409.44,-868 409.44,-469 33.77,-469"/>
<text text-anchor="middle" x="221.61" y="-852.8" font-family="Times,serif" font-size="14.00">Linear Algebra</text>
</g>
<g id="clust8" class="cluster">
<title>cluster_Probability</title>
<polygon fill="none" stroke="blue" points="55.22,-8 55.22,-461 419.84,-461 419.84,-8 55.22,-8"/>
<text text-anchor="middle" x="237.53" y="-445.8" font-family="Times,serif" font-size="14.00">Probability</text>
</g>
<g id="clust13" class="cluster">
<title>cluster_CProg</title>
<polygon fill="none" stroke="red" points="55.87,-1143 55.87,-1488 397.09,-1488 397.09,-1143 55.87,-1143"/>
<text text-anchor="middle" x="226.48" y="-1472.8" font-family="Times,serif" font-size="14.00">C Programming</text>
</g>
<!-- AutoDiff -->
<g id="node1" class="node">
<title>AutoDiff</title>
<ellipse fill="none" stroke="black" cx="509.59" cy="-1086" rx="42.79" ry="18"/>
<text text-anchor="middle" x="509.59" y="-1082.3" font-family="Times,serif" font-size="14.00">AutoDiff</text>
</g>
<!-- NeuralNetwork -->
<g id="node10" class="node">
<title>NeuralNetwork</title>
<ellipse fill="none" stroke="black" cx="672.98" cy="-695" rx="65.79" ry="18"/>
<text text-anchor="middle" x="672.98" y="-691.3" font-family="Times,serif" font-size="14.00">NeuralNetwork</text>
</g>
<!-- AutoDiff&#45;&gt;NeuralNetwork -->
<g id="edge1" class="edge">
<title>AutoDiff&#45;&gt;NeuralNetwork</title>
<path fill="none" stroke="black" d="M517.94,-1068.18C543.67,-1005.85 629.77,-797.25 660.75,-722.2"/>
<polygon fill="black" stroke="black" points="664,-723.5 664.58,-712.92 657.53,-720.83 664,-723.5"/>
</g>
<!-- Optimization -->
<g id="node2" class="node">
<title>Optimization</title>
<ellipse fill="none" stroke="black" cx="509.59" cy="-741" rx="57.69" ry="18"/>
<text text-anchor="middle" x="509.59" y="-737.3" font-family="Times,serif" font-size="14.00">Optimization</text>
</g>
<!-- Optimization&#45;&gt;NeuralNetwork -->
<g id="edge2" class="edge">
<title>Optimization&#45;&gt;NeuralNetwork</title>
<path fill="none" stroke="black" d="M552.99,-728.91C572.58,-723.33 596.09,-716.63 617.02,-710.66"/>
<polygon fill="black" stroke="black" points="618.09,-714 626.75,-707.89 616.17,-707.27 618.09,-714"/>
</g>
<!-- WeightInitialization -->
<g id="node3" class="node">
<title>WeightInitialization</title>
<ellipse fill="none" stroke="black" cx="330.6" cy="-88" rx="81.49" ry="18"/>
<text text-anchor="middle" x="330.6" y="-84.3" font-family="Times,serif" font-size="14.00">WeightInitialization</text>
</g>
<!-- WeightInitialization&#45;&gt;NeuralNetwork -->
<g id="edge3" class="edge">
<title>WeightInitialization&#45;&gt;NeuralNetwork</title>
<path fill="none" stroke="black" d="M346.33,-105.92C363.89,-127.31 394.1,-164.19 419.84,-196 487.56,-279.68 520.21,-290.26 571.33,-385 623.71,-482.07 654.68,-611.06 666.47,-667.07"/>
<polygon fill="black" stroke="black" points="663.06,-667.88 668.51,-676.96 669.92,-666.46 663.06,-667.88"/>
</g>
<!-- NearestNeighbor -->
<g id="node4" class="node">
<title>NearestNeighbor</title>
<ellipse fill="none" stroke="black" cx="330.6" cy="-549" rx="70.69" ry="18"/>
<text text-anchor="middle" x="330.6" y="-545.3" font-family="Times,serif" font-size="14.00">NearestNeighbor</text>
</g>
<!-- NearestNeighbor&#45;&gt;NeuralNetwork -->
<g id="edge4" class="edge">
<title>NearestNeighbor&#45;&gt;NeuralNetwork</title>
<path fill="none" stroke="black" d="M391.25,-558.34C401.86,-562.32 412.01,-567.98 419.84,-576 452.09,-609.02 412.28,-646.58 447.84,-676 492.6,-713.03 561.02,-713.44 610.49,-707.29"/>
<polygon fill="black" stroke="black" points="611,-710.75 620.43,-705.93 610.05,-703.81 611,-710.75"/>
</g>
<!-- Visualization -->
<g id="node5" class="node">
<title>Visualization</title>
<ellipse fill="none" stroke="black" cx="509.59" cy="-1155" rx="57.69" ry="18"/>
<text text-anchor="middle" x="509.59" y="-1151.3" font-family="Times,serif" font-size="14.00">Visualization</text>
</g>
<!-- Visualization&#45;&gt;NeuralNetwork -->
<g id="edge5" class="edge">
<title>Visualization&#45;&gt;NeuralNetwork</title>
<path fill="none" stroke="black" d="M541.43,-1139.79C552.35,-1132.99 563.79,-1124 571.33,-1113 657.86,-986.81 670.35,-794.72 671.89,-723.16"/>
<polygon fill="black" stroke="black" points="675.39,-723.17 672.05,-713.11 668.39,-723.06 675.39,-723.17"/>
</g>
<!-- DecisionTrees -->
<g id="node6" class="node">
<title>DecisionTrees</title>
<ellipse fill="none" stroke="black" cx="509.59" cy="-649" rx="61.99" ry="18"/>
<text text-anchor="middle" x="509.59" y="-645.3" font-family="Times,serif" font-size="14.00">DecisionTrees</text>
</g>
<!-- DecisionTrees&#45;&gt;NeuralNetwork -->
<g id="edge6" class="edge">
<title>DecisionTrees&#45;&gt;NeuralNetwork</title>
<path fill="none" stroke="black" d="M554.26,-661.45C573.59,-666.96 596.55,-673.5 617.03,-679.34"/>
<polygon fill="black" stroke="black" points="616.28,-682.77 626.86,-682.14 618.2,-676.03 616.28,-682.77"/>
</g>
<!-- LinearModels -->
<g id="node7" class="node">
<title>LinearModels</title>
<ellipse fill="none" stroke="black" cx="330.6" cy="-603" rx="60.39" ry="18"/>
<text text-anchor="middle" x="330.6" y="-599.3" font-family="Times,serif" font-size="14.00">LinearModels</text>
</g>
<!-- LinearModels&#45;&gt;NeuralNetwork -->
<g id="edge7" class="edge">
<title>LinearModels&#45;&gt;NeuralNetwork</title>
<path fill="none" stroke="black" d="M389.65,-598.96C439.4,-597.5 512.18,-600.19 571.33,-622 600.04,-632.59 627.81,-653.83 646.88,-670.68"/>
<polygon fill="black" stroke="black" points="644.74,-673.47 654.5,-677.59 649.45,-668.28 644.74,-673.47"/>
</g>
<!-- PCA -->
<g id="node8" class="node">
<title>PCA</title>
<ellipse fill="none" stroke="black" cx="330.6" cy="-1040" rx="27.9" ry="18"/>
<text text-anchor="middle" x="330.6" y="-1036.3" font-family="Times,serif" font-size="14.00">PCA</text>
</g>
<!-- PCA&#45;&gt;NeuralNetwork -->
<g id="edge8" class="edge">
<title>PCA&#45;&gt;NeuralNetwork</title>
<path fill="none" stroke="black" d="M351.05,-1027.36C369.53,-1014.96 397.71,-995.06 419.84,-975 514.2,-889.49 610.84,-772.12 651.74,-720.79"/>
<polygon fill="black" stroke="black" points="654.57,-722.86 658.04,-712.85 649.08,-718.51 654.57,-722.86"/>
</g>
<!-- MachineLearning -->
<g id="node9" class="node">
<title>MachineLearning</title>
<ellipse fill="none" stroke="black" cx="330.6" cy="-223" rx="73.39" ry="18"/>
<text text-anchor="middle" x="330.6" y="-219.3" font-family="Times,serif" font-size="14.00">MachineLearning</text>
</g>
<!-- MachineLearning&#45;&gt;NeuralNetwork -->
<g id="edge9" class="edge">
<title>MachineLearning&#45;&gt;NeuralNetwork</title>
<path fill="none" stroke="black" d="M344.53,-240.93C396.65,-313.21 591.54,-583.46 653.17,-668.92"/>
<polygon fill="black" stroke="black" points="650.35,-670.99 659.04,-677.06 656.02,-666.9 650.35,-670.99"/>
</g>
<!-- PythonBasics -->
<g id="node11" class="node">
<title>PythonBasics</title>
<ellipse fill="none" stroke="black" cx="330.6" cy="-1170" rx="58.49" ry="18"/>
<text text-anchor="middle" x="330.6" y="-1166.3" font-family="Times,serif" font-size="14.00">PythonBasics</text>
</g>
<!-- PythonBasics&#45;&gt;AutoDiff -->
<g id="edge11" class="edge">
<title>PythonBasics&#45;&gt;AutoDiff</title>
<path fill="none" stroke="black" d="M371.76,-1157.17C387.06,-1151.83 404.5,-1145.2 419.84,-1138 439.35,-1128.84 460.18,-1116.77 476.75,-1106.56"/>
<polygon fill="black" stroke="black" points="478.86,-1109.37 485.49,-1101.11 475.15,-1103.43 478.86,-1109.37"/>
</g>
<!-- PythonBasics&#45;&gt;Visualization -->
<g id="edge10" class="edge">
<title>PythonBasics&#45;&gt;Visualization</title>
<path fill="none" stroke="black" d="M387.11,-1165.3C404.99,-1163.78 424.96,-1162.09 443.47,-1160.52"/>
<polygon fill="black" stroke="black" points="443.9,-1163.99 453.57,-1159.66 443.31,-1157.02 443.9,-1163.99"/>
</g>
<!-- Calculus -->
<g id="node12" class="node">
<title>Calculus</title>
<g id="a_node12"><a xlink:href="https://www.khanacademy.org/math/ap-calculus-ab/ab-diff-analytical-applications-new#ab-5-11" xlink:title="Calculus">
<ellipse fill="none" stroke="green" cx="127.56" cy="-549" rx="41.69" ry="18"/>
<text text-anchor="middle" x="127.56" y="-545.3" font-family="Times,serif" font-size="14.00">Calculus</text>
</a>
</g>
</g>
<!-- Calculus&#45;&gt;AutoDiff -->
<g id="edge12" class="edge">
<title>Calculus&#45;&gt;AutoDiff</title>
<path fill="none" stroke="black" d="M168.59,-552.21C184.94,-555.65 202.53,-562.5 213.36,-576 269.08,-645.43 190.6,-908.11 249.36,-975 300.59,-1033.33 350.07,-978.97 419.84,-1013 444.88,-1025.21 469,-1045.82 485.76,-1062.03"/>
<polygon fill="black" stroke="black" points="483.35,-1064.57 492.92,-1069.12 488.28,-1059.6 483.35,-1064.57"/>
</g>
<!-- Calculus&#45;&gt;Optimization -->
<g id="edge15" class="edge">
<title>Calculus&#45;&gt;Optimization</title>
<path fill="none" stroke="black" d="M166.6,-555.35C182.22,-559.35 199.78,-565.78 213.36,-576 236.4,-593.35 227.18,-611.56 249.36,-630 310.08,-680.49 397.21,-711.43 453.35,-727.4"/>
<polygon fill="black" stroke="black" points="452.55,-730.81 463.12,-730.12 454.42,-724.07 452.55,-730.81"/>
</g>
<!-- Calculus&#45;&gt;LinearModels -->
<g id="edge26" class="edge">
<title>Calculus&#45;&gt;LinearModels</title>
<path fill="none" stroke="black" d="M163.58,-558.41C194.43,-566.69 239.86,-578.89 275.4,-588.44"/>
<polygon fill="black" stroke="black" points="274.57,-591.84 285.14,-591.06 276.39,-585.08 274.57,-591.84"/>
</g>
<!-- MatrixMultiplication -->
<g id="node13" class="node">
<title>MatrixMultiplication</title>
<ellipse fill="none" stroke="black" cx="127.56" cy="-819" rx="85.59" ry="18"/>
<text text-anchor="middle" x="127.56" y="-815.3" font-family="Times,serif" font-size="14.00">MatrixMultiplication</text>
</g>
<!-- MatrixMultiplication&#45;&gt;AutoDiff -->
<g id="edge13" class="edge">
<title>MatrixMultiplication&#45;&gt;AutoDiff</title>
<path fill="none" stroke="black" d="M138.79,-837.07C155.31,-866.57 188.54,-927.09 213.36,-980 231.13,-1017.89 215.44,-1042.49 249.36,-1067 281.34,-1090.11 390.61,-1090.51 456.64,-1088.45"/>
<polygon fill="black" stroke="black" points="456.98,-1091.94 466.85,-1088.1 456.74,-1084.94 456.98,-1091.94"/>
</g>
<!-- Projection -->
<g id="node18" class="node">
<title>Projection</title>
<ellipse fill="none" stroke="black" cx="127.56" cy="-765" rx="46.59" ry="18"/>
<text text-anchor="middle" x="127.56" y="-761.3" font-family="Times,serif" font-size="14.00">Projection</text>
</g>
<!-- MatrixMultiplication&#45;&gt;Projection -->
<g id="edge20" class="edge">
<title>MatrixMultiplication&#45;&gt;Projection</title>
<path fill="none" stroke="black" d="M127.56,-800.79C127.56,-798.31 127.56,-795.83 127.56,-793.34"/>
<polygon fill="black" stroke="black" points="131.06,-793.14 127.56,-783.14 124.06,-793.14 131.06,-793.14"/>
</g>
<!-- OperatorOverloading -->
<g id="node14" class="node">
<title>OperatorOverloading</title>
<ellipse fill="none" stroke="black" cx="127.56" cy="-1007" rx="85.59" ry="18"/>
<text text-anchor="middle" x="127.56" y="-1003.3" font-family="Times,serif" font-size="14.00">OperatorOverloading</text>
</g>
<!-- OperatorOverloading&#45;&gt;AutoDiff -->
<g id="edge14" class="edge">
<title>OperatorOverloading&#45;&gt;AutoDiff</title>
<path fill="none" stroke="black" d="M188.56,-1019.69C197.47,-1023.33 206.09,-1028 213.36,-1034 239.13,-1055.27 220.62,-1082.94 249.36,-1100 317.4,-1140.39 414.04,-1118.8 468.05,-1101.24"/>
<polygon fill="black" stroke="black" points="469.26,-1104.53 477.62,-1098.02 467.03,-1097.89 469.26,-1104.53"/>
</g>
<!-- OperatorOverloading&#45;&gt;PythonBasics -->
<g id="edge36" class="edge">
<title>OperatorOverloading&#45;&gt;PythonBasics</title>
<path fill="none" stroke="black" d="M190.76,-1019.24C199.08,-1022.94 206.94,-1027.74 213.36,-1034 248.37,-1068.15 215.58,-1102.62 249.36,-1138 256.27,-1145.24 265.03,-1150.88 274.21,-1155.26"/>
<polygon fill="black" stroke="black" points="272.91,-1158.51 283.48,-1159.24 275.67,-1152.08 272.91,-1158.51"/>
</g>
<!-- GradientDescent -->
<g id="node15" class="node">
<title>GradientDescent</title>
<ellipse fill="none" stroke="black" cx="330.6" cy="-948" rx="69.59" ry="18"/>
<text text-anchor="middle" x="330.6" y="-944.3" font-family="Times,serif" font-size="14.00">GradientDescent</text>
</g>
<!-- GradientDescent&#45;&gt;Optimization -->
<g id="edge16" class="edge">
<title>GradientDescent&#45;&gt;Optimization</title>
<path fill="none" stroke="black" d="M388.75,-937.95C399.93,-934.03 410.93,-928.58 419.84,-921 467.47,-880.49 491.93,-808.32 502.3,-768.78"/>
<polygon fill="black" stroke="black" points="505.72,-769.56 504.75,-759.01 498.93,-767.86 505.72,-769.56"/>
</g>
<!-- StochasticGD -->
<g id="node16" class="node">
<title>StochasticGD</title>
<ellipse fill="none" stroke="black" cx="330.6" cy="-894" rx="59.59" ry="18"/>
<text text-anchor="middle" x="330.6" y="-890.3" font-family="Times,serif" font-size="14.00">StochasticGD</text>
</g>
<!-- StochasticGD&#45;&gt;Optimization -->
<g id="edge17" class="edge">
<title>StochasticGD&#45;&gt;Optimization</title>
<path fill="none" stroke="black" d="M386.08,-886.99C397.92,-883.73 409.88,-878.96 419.84,-872 457.27,-845.85 483.51,-798.43 497.31,-768.39"/>
<polygon fill="black" stroke="black" points="500.65,-769.48 501.51,-758.92 494.25,-766.64 500.65,-769.48"/>
</g>
<!-- LossFunctions -->
<g id="node17" class="node">
<title>LossFunctions</title>
<ellipse fill="none" stroke="black" cx="330.6" cy="-495" rx="61.99" ry="18"/>
<text text-anchor="middle" x="330.6" y="-491.3" font-family="Times,serif" font-size="14.00">LossFunctions</text>
</g>
<!-- LossFunctions&#45;&gt;Optimization -->
<g id="edge18" class="edge">
<title>LossFunctions&#45;&gt;Optimization</title>
<path fill="none" stroke="black" d="M387.3,-502.16C399.51,-506.19 411.33,-512.42 419.84,-522 466.07,-573.98 416.6,-613.84 447.84,-676 455.64,-691.51 468.29,-705.93 480.04,-717.23"/>
<polygon fill="black" stroke="black" points="477.85,-719.97 487.57,-724.18 482.6,-714.82 477.85,-719.97"/>
</g>
<!-- Projection&#45;&gt;PCA -->
<g id="edge19" class="edge">
<title>Projection&#45;&gt;PCA</title>
<path fill="none" stroke="black" d="M172.94,-769.74C187.79,-773.52 203.14,-780.21 213.36,-792 277.08,-865.56 188.29,-932.22 249.36,-1008 260.16,-1021.41 277.42,-1029.23 293.17,-1033.78"/>
<polygon fill="black" stroke="black" points="292.67,-1037.26 303.22,-1036.31 294.38,-1030.47 292.67,-1037.26"/>
</g>
<!-- SystemofLinEq -->
<g id="node19" class="node">
<title>SystemofLinEq</title>
<ellipse fill="none" stroke="green" cx="127.56" cy="-603" rx="66.09" ry="18"/>
<text text-anchor="middle" x="127.56" y="-599.3" font-family="Times,serif" font-size="14.00">SystemofLinEq</text>
</g>
<!-- SystemofLinEq&#45;&gt;Projection -->
<g id="edge21" class="edge">
<title>SystemofLinEq&#45;&gt;Projection</title>
<path fill="none" stroke="black" d="M63.79,-607.94C44.74,-612.93 26.17,-622.18 15.77,-639 -5.26,-673.03 -5.26,-694.97 15.77,-729 27.43,-747.87 49.37,-757.2 70.74,-761.69"/>
<polygon fill="black" stroke="black" points="70.35,-765.18 80.81,-763.49 71.57,-758.29 70.35,-765.18"/>
</g>
<!-- Matrices -->
<g id="node20" class="node">
<title>Matrices</title>
<ellipse fill="none" stroke="green" cx="127.56" cy="-711" rx="42.49" ry="18"/>
<text text-anchor="middle" x="127.56" y="-707.3" font-family="Times,serif" font-size="14.00">Matrices</text>
</g>
<!-- Matrices&#45;&gt;Projection -->
<g id="edge22" class="edge">
<title>Matrices&#45;&gt;Projection</title>
<path fill="none" stroke="black" d="M127.56,-729.14C127.56,-731.62 127.56,-734.1 127.56,-736.59"/>
<polygon fill="black" stroke="black" points="124.06,-736.79 127.56,-746.79 131.06,-736.79 124.06,-736.79"/>
</g>
<!-- DotProduct -->
<g id="node21" class="node">
<title>DotProduct</title>
<ellipse fill="none" stroke="green" cx="127.56" cy="-657" rx="51.19" ry="18"/>
<text text-anchor="middle" x="127.56" y="-653.3" font-family="Times,serif" font-size="14.00">DotProduct</text>
</g>
<!-- DotProduct&#45;&gt;Projection -->
<g id="edge23" class="edge">
<title>DotProduct&#45;&gt;Projection</title>
<path fill="none" stroke="black" d="M76.45,-659.21C53.37,-663.21 28.47,-672.45 15.77,-693 7.36,-706.61 7.36,-715.39 15.77,-729 27.43,-747.87 49.37,-757.2 70.74,-761.69"/>
<polygon fill="black" stroke="black" points="70.35,-765.18 80.81,-763.49 71.57,-758.29 70.35,-765.18"/>
</g>
<!-- Norms -->
<g id="node22" class="node">
<title>Norms</title>
<ellipse fill="none" stroke="green" cx="127.56" cy="-495" rx="35.19" ry="18"/>
<text text-anchor="middle" x="127.56" y="-491.3" font-family="Times,serif" font-size="14.00">Norms</text>
</g>
<!-- Norms&#45;&gt;NearestNeighbor -->
<g id="edge25" class="edge">
<title>Norms&#45;&gt;NearestNeighbor</title>
<path fill="none" stroke="black" d="M159.1,-503.2C188.72,-511.16 234.43,-523.44 271.07,-533.28"/>
<polygon fill="black" stroke="black" points="270.58,-536.77 281.14,-535.98 272.39,-530.01 270.58,-536.77"/>
</g>
<!-- Norms&#45;&gt;LinearModels -->
<g id="edge27" class="edge">
<title>Norms&#45;&gt;LinearModels</title>
<path fill="none" stroke="black" d="M161.56,-500.13C178.34,-504 198.3,-510.66 213.36,-522 236.4,-539.35 226.46,-558.46 249.36,-576 256.07,-581.14 263.81,-585.33 271.78,-588.74"/>
<polygon fill="black" stroke="black" points="270.62,-592.05 281.2,-592.4 273.15,-585.52 270.62,-592.05"/>
</g>
<!-- Norms&#45;&gt;LossFunctions -->
<g id="edge24" class="edge">
<title>Norms&#45;&gt;LossFunctions</title>
<path fill="none" stroke="black" d="M162.67,-495C188.85,-495 225.91,-495 258.46,-495"/>
<polygon fill="black" stroke="black" points="258.85,-498.5 268.85,-495 258.85,-491.5 258.85,-498.5"/>
</g>
<!-- Prior -->
<g id="node23" class="node">
<title>Prior</title>
<ellipse fill="none" stroke="green" cx="127.56" cy="-196" rx="28.7" ry="18"/>
<text text-anchor="middle" x="127.56" y="-192.3" font-family="Times,serif" font-size="14.00">Prior</text>
</g>
<!-- Prior&#45;&gt;MachineLearning -->
<g id="edge28" class="edge">
<title>Prior&#45;&gt;MachineLearning</title>
<path fill="none" stroke="black" d="M155.68,-199.64C181.23,-203.07 220.71,-208.38 255.6,-213.06"/>
<polygon fill="black" stroke="black" points="255.4,-216.57 265.78,-214.43 256.33,-209.63 255.4,-216.57"/>
</g>
<!-- Likelihood -->
<g id="node24" class="node">
<title>Likelihood</title>
<ellipse fill="none" stroke="green" cx="127.56" cy="-142" rx="49.29" ry="18"/>
<text text-anchor="middle" x="127.56" y="-138.3" font-family="Times,serif" font-size="14.00">Likelihood</text>
</g>
<!-- Likelihood&#45;&gt;MachineLearning -->
<g id="edge29" class="edge">
<title>Likelihood&#45;&gt;MachineLearning</title>
<path fill="none" stroke="black" d="M166.91,-153.08C181.58,-157.62 198.39,-163.17 213.36,-169 238.76,-178.9 266.46,-191.69 288.46,-202.34"/>
<polygon fill="black" stroke="black" points="286.99,-205.51 297.51,-206.75 290.06,-199.22 286.99,-205.51"/>
</g>
<!-- Posterior -->
<g id="node25" class="node">
<title>Posterior</title>
<ellipse fill="none" stroke="green" cx="127.56" cy="-250" rx="42.49" ry="18"/>
<text text-anchor="middle" x="127.56" y="-246.3" font-family="Times,serif" font-size="14.00">Posterior</text>
</g>
<!-- Posterior&#45;&gt;MachineLearning -->
<g id="edge30" class="edge">
<title>Posterior&#45;&gt;MachineLearning</title>
<path fill="none" stroke="black" d="M168.28,-244.67C193.16,-241.33 225.99,-236.92 255.53,-232.95"/>
<polygon fill="black" stroke="black" points="256.38,-236.36 265.83,-231.56 255.45,-229.43 256.38,-236.36"/>
</g>
<!-- BayesTheorem -->
<g id="node26" class="node">
<title>BayesTheorem</title>
<ellipse fill="none" stroke="green" cx="127.56" cy="-358" rx="64.19" ry="18"/>
<text text-anchor="middle" x="127.56" y="-354.3" font-family="Times,serif" font-size="14.00">BayesTheorem</text>
</g>
<!-- BayesTheorem&#45;&gt;LossFunctions -->
<g id="edge31" class="edge">
<title>BayesTheorem&#45;&gt;LossFunctions</title>
<path fill="none" stroke="black" d="M182.38,-367.69C193.56,-371.63 204.59,-377.19 213.36,-385 242.46,-410.95 220.9,-438.34 249.36,-465 255.9,-471.13 263.82,-476.04 272.09,-479.96"/>
<polygon fill="black" stroke="black" points="270.96,-483.28 281.53,-483.98 273.7,-476.84 270.96,-483.28"/>
</g>
<!-- CrossEntropy -->
<g id="node27" class="node">
<title>CrossEntropy</title>
<ellipse fill="none" stroke="green" cx="127.56" cy="-304" rx="59.29" ry="18"/>
<text text-anchor="middle" x="127.56" y="-300.3" font-family="Times,serif" font-size="14.00">CrossEntropy</text>
</g>
<!-- CrossEntropy&#45;&gt;LossFunctions -->
<g id="edge32" class="edge">
<title>CrossEntropy&#45;&gt;LossFunctions</title>
<path fill="none" stroke="black" d="M181.14,-311.92C193.05,-315.93 204.71,-321.95 213.36,-331 255.95,-375.59 207.88,-419.37 249.36,-465 255.18,-471.41 262.51,-476.45 270.35,-480.42"/>
<polygon fill="black" stroke="black" points="269.17,-483.73 279.73,-484.61 272.02,-477.34 269.17,-483.73"/>
</g>
<!-- Regularization -->
<g id="node28" class="node">
<title>Regularization</title>
<ellipse fill="none" stroke="green" cx="127.56" cy="-412" rx="62.29" ry="18"/>
<text text-anchor="middle" x="127.56" y="-408.3" font-family="Times,serif" font-size="14.00">Regularization</text>
</g>
<!-- Regularization&#45;&gt;LossFunctions -->
<g id="edge33" class="edge">
<title>Regularization&#45;&gt;LossFunctions</title>
<path fill="none" stroke="black" d="M161.68,-427.12C185.83,-438.01 219.44,-452.85 249.36,-465 259.7,-469.2 270.87,-473.51 281.5,-477.51"/>
<polygon fill="black" stroke="black" points="280.47,-480.87 291.06,-481.09 282.92,-474.31 280.47,-480.87"/>
</g>
<!-- Distributions -->
<g id="node29" class="node">
<title>Distributions</title>
<ellipse fill="none" stroke="green" cx="127.56" cy="-88" rx="56.59" ry="18"/>
<text text-anchor="middle" x="127.56" y="-84.3" font-family="Times,serif" font-size="14.00">Distributions</text>
</g>
<!-- Distributions&#45;&gt;WeightInitialization -->
<g id="edge34" class="edge">
<title>Distributions&#45;&gt;WeightInitialization</title>
<path fill="none" stroke="black" d="M184.3,-88C201.34,-88 220.54,-88 239.26,-88"/>
<polygon fill="black" stroke="black" points="239.29,-91.5 249.29,-88 239.29,-84.5 239.29,-91.5"/>
</g>
<!-- Sampling -->
<g id="node30" class="node">
<title>Sampling</title>
<ellipse fill="none" stroke="green" cx="127.56" cy="-34" rx="44.69" ry="18"/>
<text text-anchor="middle" x="127.56" y="-30.3" font-family="Times,serif" font-size="14.00">Sampling</text>
</g>
<!-- Sampling&#45;&gt;WeightInitialization -->
<g id="edge35" class="edge">
<title>Sampling&#45;&gt;WeightInitialization</title>
<path fill="none" stroke="black" d="M165.44,-43.9C194.22,-51.64 234.83,-62.55 268.46,-71.58"/>
<polygon fill="black" stroke="black" points="267.63,-74.98 278.2,-74.19 269.45,-68.22 267.63,-74.98"/>
</g>
<!-- ObjectOrientedProg -->
<g id="node31" class="node">
<title>ObjectOrientedProg</title>
<ellipse fill="none" stroke="black" cx="127.56" cy="-1115" rx="81.49" ry="18"/>
<text text-anchor="middle" x="127.56" y="-1111.3" font-family="Times,serif" font-size="14.00">ObjectOrientedProg</text>
</g>
<!-- ObjectOrientedProg&#45;&gt;PythonBasics -->
<g id="edge37" class="edge">
<title>ObjectOrientedProg&#45;&gt;PythonBasics</title>
<path fill="none" stroke="black" d="M179.55,-1128.95C209.13,-1137.04 246.33,-1147.22 276.3,-1155.42"/>
<polygon fill="black" stroke="black" points="275.59,-1158.85 286.16,-1158.12 277.44,-1152.1 275.59,-1158.85"/>
</g>
<!-- FunctionalProg -->
<g id="node32" class="node">
<title>FunctionalProg</title>
<ellipse fill="none" stroke="black" cx="127.56" cy="-1061" rx="64.99" ry="18"/>
<text text-anchor="middle" x="127.56" y="-1057.3" font-family="Times,serif" font-size="14.00">FunctionalProg</text>
</g>
<!-- FunctionalProg&#45;&gt;PythonBasics -->
<g id="edge38" class="edge">
<title>FunctionalProg&#45;&gt;PythonBasics</title>
<path fill="none" stroke="black" d="M180.39,-1071.75C191.92,-1075.65 203.6,-1080.92 213.36,-1088 235.52,-1104.08 227.78,-1121.14 249.36,-1138 257.69,-1144.51 267.51,-1149.86 277.38,-1154.19"/>
<polygon fill="black" stroke="black" points="276.22,-1157.5 286.8,-1158.04 278.87,-1151.02 276.22,-1157.5"/>
</g>
<!-- CStruct -->
<g id="node33" class="node">
<title>CStruct</title>
<g id="a_node33"><a xlink:href="https://www.cprogramming.com/tutorial/c/lesson7.html" xlink:title="CStruct">
<ellipse fill="none" stroke="green" cx="127.56" cy="-1439" rx="37.89" ry="18"/>
<text text-anchor="middle" x="127.56" y="-1435.3" font-family="Times,serif" font-size="14.00">CStruct</text>
</a>
</g>
</g>
<!-- CStruct&#45;&gt;PythonBasics -->
<g id="edge39" class="edge">
<title>CStruct&#45;&gt;PythonBasics</title>
<path fill="none" stroke="black" d="M164.35,-1434.25C180.83,-1430.52 199.72,-1423.86 213.36,-1412 280.35,-1353.76 312,-1248.24 323.82,-1198.02"/>
<polygon fill="black" stroke="black" points="327.25,-1198.7 326.04,-1188.18 320.42,-1197.16 327.25,-1198.7"/>
</g>
<!-- CFuncPtr -->
<g id="node34" class="node">
<title>CFuncPtr</title>
<g id="a_node34"><a xlink:href="https://www.cprogramming.com/tutorial/function-pointers.html" xlink:title="CFuncPtr">
<ellipse fill="none" stroke="green" cx="127.56" cy="-1385" rx="44.39" ry="18"/>
<text text-anchor="middle" x="127.56" y="-1381.3" font-family="Times,serif" font-size="14.00">CFuncPtr</text>
</a>
</g>
</g>
<!-- CFuncPtr&#45;&gt;PythonBasics -->
<g id="edge40" class="edge">
<title>CFuncPtr&#45;&gt;PythonBasics</title>
<path fill="none" stroke="black" d="M168.92,-1378.32C184.01,-1374.32 200.57,-1367.98 213.36,-1358 268.3,-1315.13 303.79,-1238.47 319.78,-1197.54"/>
<polygon fill="black" stroke="black" points="323.14,-1198.53 323.42,-1187.94 316.6,-1196.05 323.14,-1198.53"/>
</g>
<!-- CCntrlStruct -->
<g id="node35" class="node">
<title>CCntrlStruct</title>
<g id="a_node35"><a xlink:href="https://www.cprogramming.com/tutorial/c/lesson3.html" xlink:title="CCntrlStruct">
<ellipse fill="none" stroke="green" cx="127.56" cy="-1331" rx="55.79" ry="18"/>
<text text-anchor="middle" x="127.56" y="-1327.3" font-family="Times,serif" font-size="14.00">CCntrlStruct</text>
</a>
</g>
</g>
<!-- CCntrlStruct&#45;&gt;PythonBasics -->
<g id="edge41" class="edge">
<title>CCntrlStruct&#45;&gt;PythonBasics</title>
<path fill="none" stroke="black" d="M175.08,-1321.17C188.13,-1317.13 201.87,-1311.56 213.36,-1304 256.48,-1275.61 292.98,-1226.93 313.03,-1196.72"/>
<polygon fill="black" stroke="black" points="316.2,-1198.27 318.72,-1187.97 310.33,-1194.45 316.2,-1198.27"/>
</g>
<!-- CMemAlloc -->
<g id="node36" class="node">
<title>CMemAlloc</title>
<g id="a_node36"><a xlink:href="https://www.cprogramming.com/tutorial/c/lesson6.html" xlink:title="CMemAlloc">
<ellipse fill="none" stroke="green" cx="127.56" cy="-1277" rx="55.79" ry="18"/>
<text text-anchor="middle" x="127.56" y="-1273.3" font-family="Times,serif" font-size="14.00">CMemAlloc</text>
</a>
</g>
</g>
<!-- CMemAlloc&#45;&gt;PythonBasics -->
<g id="edge42" class="edge">
<title>CMemAlloc&#45;&gt;PythonBasics</title>
<path fill="none" stroke="black" d="M171.79,-1265.92C185.42,-1261.73 200.32,-1256.39 213.36,-1250 245.16,-1234.42 278.1,-1210.93 300.76,-1193.43"/>
<polygon fill="black" stroke="black" points="303.2,-1195.97 308.92,-1187.05 298.89,-1190.45 303.2,-1195.97"/>
</g>
<!-- CPtrs -->
<g id="node37" class="node">
<title>CPtrs</title>
<g id="a_node37"><a xlink:href="https://www.cprogramming.com/tutorial/c/lesson6.html" xlink:title="CPtrs">
<ellipse fill="none" stroke="green" cx="127.56" cy="-1223" rx="30.59" ry="18"/>
<text text-anchor="middle" x="127.56" y="-1219.3" font-family="Times,serif" font-size="14.00">CPtrs</text>
</a>
</g>
</g>
<!-- CPtrs&#45;&gt;PythonBasics -->
<g id="edge43" class="edge">
<title>CPtrs&#45;&gt;PythonBasics</title>
<path fill="none" stroke="black" d="M155.68,-1215.85C186.27,-1207.79 236.82,-1194.46 275.56,-1184.25"/>
<polygon fill="black" stroke="black" points="276.87,-1187.52 285.64,-1181.59 275.08,-1180.75 276.87,-1187.52"/>
</g>
<!-- CVaribleScope -->
<g id="node38" class="node">
<title>CVaribleScope</title>
<ellipse fill="none" stroke="green" cx="127.56" cy="-1169" rx="63.89" ry="18"/>
<text text-anchor="middle" x="127.56" y="-1165.3" font-family="Times,serif" font-size="14.00">CVaribleScope</text>
</g>
<!-- CVaribleScope&#45;&gt;PythonBasics -->
<g id="edge44" class="edge">
<title>CVaribleScope&#45;&gt;PythonBasics</title>
<path fill="none" stroke="black" d="M191.35,-1169.31C213.73,-1169.42 239.02,-1169.55 261.8,-1169.66"/>
<polygon fill="black" stroke="black" points="262.06,-1173.16 272.07,-1169.71 262.09,-1166.16 262.06,-1173.16"/>
</g>
</g>
</svg>
